<svg xmlns="http://www.w3.org/2000/svg" width="600" height="600" viewBox="-3 0 450 450.373">
    <path d="M435.313 7.633v277h-85v-277zm0 0"/>
    <path fill="#f7caa5" d="M77.672 96.375c-18.559 0-33.602-14.04-33.602-31.36v-.703c0-17.289 14.98-31.308 33.5-31.359 60.582-.14 182.25-.05 272.743.043v199.18h-.141c-9.512 23.25-45.14 44.258-65.48 58.078a67.89 67.89 0 0 0-9.91 8.25 74.93 74.93 0 0 0-21.579 46.98l-7.39 96.891-17.891-2.781c-27.484-3.496-48.23-26.649-48.7-54.348l2.758-99.773-140.347-.149c-18.543-.02-33.563-14.05-33.563-31.36v-.01c0-17.321 15.032-31.36 33.59-31.36h6.992c-18.011-.57-32.422-14.38-32.422-31.34v-.73c0-17.32 15.043-31.36 33.59-31.36h10.813c-18.551 0-33.59-14.039-33.59-31.36v-.07c0-17.32 15.039-31.359 33.59-31.359zm0 0"/>
    <path fill="#083863" d="M435.313.004h-85a7.38 7.38 0 0 0-7.622 7.629v17.351c-132-.125-218.87-.136-265.14-.03-22.871.062-41.86 17.718-41.86 39.358v.704A38.166 38.166 0 0 0 46.09 90.793c-15.88 5.547-27.137 20.027-27.137 37.012a38.441 38.441 0 0 0 12.274 27.62C17.703 161.93 8.69 175.216 8.69 190.524v.73a38.04 38.04 0 0 0 12.61 28.524C8.77 226.567.187 239.34.187 253.965c0 21.676 18.583 39.336 41.493 39.36l132.105.14-2.547 91.558c0 .118-.011.239-.008.356.532 31.637 24.192 58.09 55.57 62.137l17.782 2.761a8.003 8.003 0 0 0 9.203-7.297l7.387-96.89a66.396 66.396 0 0 1 11.875-33.086 67.224 67.224 0 0 1 7.41-8.86 59.815 59.815 0 0 1 8.73-7.273c2.618-1.777 5.68-3.676 8.723-5.684 14.102-9.324 31.781-20.917 44.781-34.19v27.636c0 4.418 3.2 8.37 7.622 8.37h85a8.656 8.656 0 0 0 8.378-8.37v-277c0-4.418-3.96-7.63-8.378-7.63zM289.09 277.836c-3.09 2.047-6.106 3.976-8.797 5.8a76.024 76.024 0 0 0-11.113 9.208 82.748 82.748 0 0 0-23.938 52.027l-6.738 88.266-9.344-1.453c-.074-.012-.148-.02-.219-.032-23.421-3.086-41.113-22.757-41.71-46.375l2.753-99.586a7.99 7.99 0 0 0-2.257-5.796 8.012 8.012 0 0 0-5.73-2.426l-140.349-.149c-14.101-.015-25.57-10.289-25.57-23.164s11.473-23.152 25.582-23.152h6.957c.399 0 .793.02 1.2.02.132 0 .265-.02.398-.02h55.035a8 8 0 0 0 0-16H48.832c-13.8-1-24.14-11.121-24.14-23.75v-.73c0-12.88 11.019-23.52 25.128-23.52h50.203a8 8 0 0 0 0-16h-39.39c-14.11 0-25.59-10.582-25.59-23.535 0-12.88 11.48-23.465 25.59-23.465h37.16a8 8 0 0 0 0-16H77.672c-14.117 0-25.98-10.11-25.98-22.988v-.704c0-12.84 11.828-23.32 25.898-23.359 46.25-.105 133.101-.098 265.101.031v189.192c-8 17.59-34.343 34.93-53.601 47.66zm138.601-.832h-69v-261h69zm0 0"/>
</svg>
