<svg xmlns="http://www.w3.org/2000/svg" width="600" height="600" viewBox="-3 0 450 450.374">
    <path fill="#f7caa5" d="M395.227 227.781c18.011.57 32.421 14.38 32.421 31.34v.73c0 17.317-15.043 31.36-33.59 31.36h-10.812c18.55 0 33.59 14.039 33.59 31.36v.07c0 17.32-15.04 31.359-33.59 31.359h-17.039c18.559 0 33.602 14.04 33.602 31.36v.699c0 17.293-14.98 31.312-33.5 31.359-60.582.14-182.25.05-272.743-.04V218.2h.141c9.512-23.25 45.14-44.258 65.48-58.078a67.89 67.89 0 0 0 9.91-8.25 74.93 74.93 0 0 0 21.579-46.98L198.066 8l17.891 2.781c27.484 3.496 48.23 26.645 48.7 54.348l-2.759 99.77 140.348.152c18.54.02 33.563 14.05 33.563 31.36v.007c0 17.32-15.032 31.363-33.59 31.363zm0 0"/>
    <path d="M93.566 417.379v25.36h-85v-277h85zm0 0"/>
    <path fill="#083863" d="M443.809 196.41c0-21.68-18.641-39.336-41.551-39.36l-132.137-.14 2.531-91.558v-.36c-.535-31.633-24.195-58.086-55.574-62.133L199.293.094a8.027 8.027 0 0 0-6.2 1.636 8.007 8.007 0 0 0-3.003 5.665l-7.39 96.89a66.386 66.386 0 0 1-11.868 33.086 67.224 67.224 0 0 1-7.41 8.86 59.788 59.788 0 0 1-8.73 7.269c-2.618 1.781-5.68 3.68-8.72 5.688-14.105 9.32-31.784 20.914-44.784 34.19v-27.64c0-4.418-3.2-8.367-7.622-8.367h-85a8.652 8.652 0 0 0-8.378 8.367v277c0 4.422 3.96 7.633 8.378 7.633h85a7.394 7.394 0 0 0 5.47-2.16 7.381 7.381 0 0 0 2.152-5.473v-17.351c72 .07 130.523.105 176.32.105 38.187 0 67.828-.023 88.918-.074 22.87-.059 41.762-17.715 41.762-39.36v-.699a38.162 38.162 0 0 0-10.395-25.777c15.879-5.55 27.14-20.027 27.14-37.012a38.472 38.472 0 0 0-12.273-27.62c13.516-6.509 22.527-19.794 22.527-35.098v-.73a38.04 38.04 0 0 0-12.609-28.524c12.531-6.79 21.23-19.563 21.23-34.188zM85.187 434.371h-69v-261h69zm317.032-215h-6.957c-.399 0-.793-.02-1.196-.02-.132 0-.261.02-.398.02h-55.04c-4.421 0-8 3.582-8 8s3.579 8 8 8h56.419c13.8 1 24.14 11.117 24.14 23.75v.73c0 12.88-11.019 23.52-25.128 23.52h-50.204a8 8 0 0 0 0 16h39.391c14.11 0 25.59 10.582 25.59 23.535 0 12.88-11.48 23.465-25.59 23.465h-37.16a8 8 0 0 0 0 16h20.121c14.117 0 25.98 10.11 25.98 22.988v.7c0 12.843-11.828 23.324-25.902 23.359-46.25.11-133.098.102-265.098-.031V220.199c8-17.59 34.344-34.933 53.598-47.664 3.094-2.043 6.113-3.972 8.8-5.797a76.024 76.024 0 0 0 11.114-9.207 82.749 82.749 0 0 0 23.938-52.031l6.734-88.262 9.348 1.45c.07.011.144.023.218.03 23.422 3.09 41.114 22.762 41.711 46.38l-2.753 99.586a7.993 7.993 0 0 0 7.988 8.219l140.347.152c14.102.015 25.57 10.289 25.57 23.164s-11.472 23.152-25.581 23.152zm0 0"/>
</svg>
