<?xml version="1.0" standalone="no"?>
<!DOCTYPE svg PUBLIC "-//W3C//DTD SVG 20010904//EN"
 "http://www.w3.org/TR/2001/REC-SVG-20010904/DTD/svg10.dtd">
<svg version="1.0" xmlns="http://www.w3.org/2000/svg"
 width="356.000000pt" height="356.000000pt" viewBox="0 0 356.000000 356.000000"
 preserveAspectRatio="xMidYMid meet">
<metadata>
Created by potrace 1.11, written by Peter Selinger 2001-2013
</metadata>
<g transform="translate(0.000000,356.000000) scale(0.100000,-0.100000)"
fill="#000000" stroke="none">
<path d="M609 3539 c-219 -18 -389 -115 -496 -284 -50 -80 -82 -189 -93 -322
-13 -155 -13 -2151 0 -2306 31 -369 238 -576 607 -607 155 -13 2151 -13 2306
0 369 31 576 238 607 607 13 155 13 2151 0 2306 -31 369 -238 576 -607 607
-140 12 -2183 11 -2324 -1z m2390 -100 c149 -24 268 -94 346 -204 52 -72 79
-140 94 -236 15 -88 15 -2350 0 -2438 -15 -96 -42 -164 -94 -236 -78 -110
-197 -180 -346 -204 -88 -15 -2350 -15 -2438 0 -149 24 -268 94 -346 204 -52
72 -79 140 -94 236 -15 88 -15 2350 0 2438 38 237 199 401 431 440 78 13 2368
13 2447 0z"/>
<path d="M1743 3418 c-52 -58 -100 -209 -138 -441 -3 -21 -6 -91 -6 -155 0
-180 45 -294 129 -329 129 -54 231 90 232 326 0 203 -81 532 -149 600 -27 27
-42 26 -68 -1z"/>
<path d="M797 2959 c-57 -14 -89 -33 -134 -82 -142 -154 -51 -397 164 -432
112 -18 244 71 278 188 27 94 1 190 -71 259 -64 60 -157 87 -237 67z"/>
<path d="M2645 2961 c-166 -43 -252 -217 -181 -366 99 -210 406 -195 481 24
42 123 -8 251 -122 313 -52 29 -130 42 -178 29z"/>
<path d="M2160 2195 c-33 -33 -42 -49 -35 -58 52 -69 98 -149 115 -203 29 -87
25 -239 -9 -326 -47 -120 -159 -233 -279 -279 -71 -27 -212 -37 -291 -19 -211
46 -371 241 -373 456 -1 116 39 239 110 332 l25 33 -24 25 c-13 14 -37 35 -52
46 -27 20 -29 20 -49 2 -34 -32 -95 -145 -123 -228 -35 -103 -43 -225 -21
-324 47 -223 222 -410 446 -476 284 -85 607 57 739 324 92 187 93 378 2 565
-34 71 -111 175 -130 175 -4 0 -27 -20 -51 -45z"/>
<path d="M475 2187 c-118 -39 -207 -117 -258 -225 -30 -63 -32 -74 -32 -177 0
-103 2 -114 32 -177 41 -88 113 -160 201 -201 63 -30 74 -32 177 -32 103 0
114 2 177 32 88 41 160 113 201 201 30 63 32 74 32 177 0 103 -2 114 -32 177
-41 88 -113 160 -201 201 -58 27 -79 32 -162 34 -59 2 -110 -2 -135 -10z"/>
<path d="M2835 2187 c-118 -39 -207 -117 -258 -225 -30 -63 -32 -74 -32 -177
0 -103 2 -114 32 -177 41 -88 113 -160 201 -201 63 -30 74 -32 177 -32 103 0
114 2 177 32 88 41 160 113 201 201 30 63 32 74 32 177 0 103 -2 114 -32 177
-41 88 -113 160 -201 201 -58 27 -79 32 -162 34 -59 2 -110 -2 -135 -10z"/>
<path d="M1733 2029 c-158 -30 -251 -204 -186 -350 25 -56 99 -124 149 -138
206 -57 380 117 323 323 -6 22 -31 60 -56 87 -62 66 -144 94 -230 78z"/>
<path d="M797 1109 c-57 -13 -89 -33 -134 -82 -67 -73 -86 -174 -50 -269 22
-56 97 -130 153 -148 159 -54 321 47 349 217 18 110 -71 243 -184 277 -60 18
-78 18 -134 5z"/>
<path d="M2638 1110 c-117 -29 -198 -133 -198 -255 0 -101 52 -185 144 -232
137 -71 311 0 361 146 29 86 12 184 -44 252 -59 71 -176 110 -263 89z"/>
<path d="M1704 1050 c-37 -24 -79 -97 -94 -165 -37 -165 12 -512 95 -682 65
-133 114 -108 181 91 44 129 68 279 68 431 1 172 -16 236 -79 302 -38 39 -46
43 -91 43 -32 0 -60 -7 -80 -20z"/>
</g>
</svg>
